
        <svg xmlns="http://www.w3.org/2000/svg" xmlns:xlink="http://www.w3.org/1999/xlink" version="1.1" width="3181.8181818181824" height="652.4212121793903" viewBox="0 0 3181.8181818181824 652.4212121793903">
			
			<g transform="scale(9.090909090909092) translate(10, 10)">
				<defs id="SvgjsDefs13033"/><g id="SvgjsG13034" featureKey="monogramFeature-0" transform="matrix(1.732501695861569,0,0,1.732501695861569,3.4012474562076465,-52.3908442773462)" fill="#000"><path d="M21.78 45.12 l8.58 14.94 l-28.86 -0.06 l0 -29.76 l28.86 0 l-8.58 14.88 l0 0 z"/></g><g id="SvgjsG13035" featureKey="nameFeature-0" transform="matrix(1.7974421774677942,0,0,1.7974421774677942,62.81022529051828,-20.85032651594731)" fill="#000"><path d="M7 12 l0 12.4 l6.6 0 l6.8 -12.4 l3 0 l0 1.2 l-7.4 12.4 l7.8 13.2 l0 1.2 l-3 0 l-7.2 -13 l-6.6 0 l0 13 l-3 0 l0 -28 l3 0 z M27.33 33.8 l0 -15.6 c0 -3.8 2.8 -6.6 7 -6.6 l7 0 c4.2 0 7 2.8 7 6.6 l0 15.6 c0 3.8 -2.8 6.6 -7 6.6 l-7 0 c-4.2 0 -7 -2.8 -7 -6.6 z M45.33 33.8 l0 -15.6 c0 -2.2 -1.8 -4 -4 -4 l-7 0 c-2.2 0 -4 1.8 -4 4 l0 15.6 c0 2.2 1.8 4 4 4 l7 0 c2.2 0 4 -1.8 4 -4 z M71.06 40 l-13.6 -23 l-0.2 0 l0.4 5.2 l0 17.8 l-3 0 l0 -28 l3.2 0 l13.6 23 l0.2 0 l-0.4 -5.2 l0 -17.8 l3 0 l0 28 l-3.2 0 z M80.59 33.8 l0 -15.6 c0 -3.8 2.8 -6.6 7 -6.6 l7 0 c4.2 0 7 2.8 7 6.6 l0 15.6 c0 3.8 -2.8 6.6 -7 6.6 l-7 0 c-4.2 0 -7 -2.8 -7 -6.6 z M98.59 33.8 l0 -15.6 c0 -2.2 -1.8 -4 -4 -4 l-7 0 c-2.2 0 -4 1.8 -4 4 l0 15.6 c0 2.2 1.8 4 4 4 l7 0 c2.2 0 4 -1.8 4 -4 z M116.12 14.600000000000001 l0 25.4 l-3 0 l0 -25.4 l-8.8 0 l0 -2.6 l20.6 0 l0 1.8 l-0.8 0.8 l-8 0 z M127.65 33.8 l0 -15.6 c0 -3.8 2.8 -6.6 7 -6.6 l7 0 c4.2 0 7 2.8 7 6.6 l0 15.6 c0 3.8 -2.8 6.6 -7 6.6 l-7 0 c-4.2 0 -7 -2.8 -7 -6.6 z M145.65 33.8 l0 -15.6 c0 -2.2 -1.8 -4 -4 -4 l-7 0 c-2.2 0 -4 1.8 -4 4 l0 15.6 c0 2.2 1.8 4 4 4 l7 0 c2.2 0 4 -1.8 4 -4 z"/></g>
			</g>
		</svg>
	